<?xml version="1.0" standalone="no"?>
<!DOCTYPE svg PUBLIC "-//W3C//DTD SVG 20010904//EN"
 "http://www.w3.org/TR/2001/REC-SVG-20010904/DTD/svg10.dtd">
<svg version="1.0" xmlns="http://www.w3.org/2000/svg"
 width="1476.000000pt" height="1462.000000pt" viewBox="0 0 1476.000000 1462.000000"
 preserveAspectRatio="xMidYMid meet">

<g transform="translate(0.000000,1462.000000) scale(0.100000,-0.100000)"
fill="#000000" stroke="none">
<path d="M10290 10685 c-227 -40 -245 -44 -160 -40 52 3 298 12 545 21 248 9
456 20 463 24 14 7 -239 26 -468 34 -115 5 -146 1 -380 -39z"/>
<path d="M11355 10523 c-327 -17 -848 -61 -1040 -87 -93 -13 -57 -14 485 -16
322 -1 574 -5 560 -9 -14 -4 -616 -115 -1338 -246 l-1312 -239 -114 -205
c-966 -1749 -2021 -3897 -2705 -5508 -61 -144 -117 -275 -124 -290 -10 -23
-13 40 -17 362 l-5 389 -134 -284 c-86 -183 -164 -368 -218 -515 -148 -408
-353 -978 -353 -983 0 -3 46 87 103 199 134 264 482 878 507 894 7 5 -16 -104
-95 -435 -24 -102 -87 -376 -140 -610 -53 -234 -132 -584 -176 -779 -44 -194
-79 -355 -77 -357 2 -2 51 97 108 219 57 122 126 267 153 322 26 55 146 309
266 565 120 256 286 609 369 785 83 176 174 370 204 430 l53 110 3 -390 3
-390 84 198 c238 560 573 1303 870 1932 538 1138 1273 2574 1882 3677 l114
207 52 10 c29 6 201 38 382 71 182 32 537 97 790 143 253 46 683 124 955 173
l494 89 -634 5 c-421 3 -615 8 -575 14 58 8 991 156 1472 233 128 21 230 39
228 41 -3 3 -139 -1 -1143 -38 -293 -11 -559 -20 -590 -19 -41 1 28 15 238 50
662 110 920 152 1223 202 347 57 348 57 124 76 -113 10 -773 12 -932 4z m-738
-339 c-3 -3 -12 -4 -19 -1 -8 3 -5 6 6 6 11 1 17 -2 13 -5z"/>
<path d="M5730 9396 l-975 -232 3 -40 c4 -47 43 -206 72 -289 31 -89 92 -215
104 -215 18 0 1556 366 1561 372 15 14 231 638 221 637 -6 0 -450 -105 -986
-233z"/>
</g>
</svg>
