<svg width="184" height="60" viewBox="0 0 184 60" fill="none" xmlns="http://www.w3.org/2000/svg">
<path d="M70.8594 18.6094C70.8594 16.2031 71.5111 14.3555 72.8145 13.0664C74.1322 11.7773 75.9154 11.1328 78.1641 11.1328C80.2266 11.1328 81.8092 11.6484 82.9121 12.6797C84.0293 13.6966 84.5879 14.9141 84.5879 16.332H81.4297C81.4297 15.5729 81.1361 14.9499 80.5488 14.4629C79.9759 13.9616 79.1882 13.7109 78.1855 13.7109C77.0397 13.7109 76.0872 14.112 75.3281 14.9141C74.5833 15.7161 74.2109 16.9479 74.2109 18.6094C74.2109 20.2852 74.5905 21.5599 75.3496 22.4336C76.123 23.3073 77.0684 23.7441 78.1855 23.7441C79.1738 23.7441 79.9688 23.4648 80.5703 22.9062C81.1862 22.3477 81.4941 21.6816 81.4941 20.9082H84.6094C84.6094 22.3405 84.0508 23.6009 82.9336 24.6895C81.8164 25.778 80.2266 26.3223 78.1641 26.3223C75.9297 26.3223 74.1536 25.6419 72.8359 24.2812C71.5182 22.9206 70.8594 21.0299 70.8594 18.6094ZM89.4434 20.5645C89.4434 21.5527 89.6582 22.3477 90.0879 22.9492C90.5319 23.5508 91.1406 23.8516 91.9141 23.8516C92.6875 23.8516 93.2891 23.5508 93.7188 22.9492C94.1628 22.3477 94.3848 21.5527 94.3848 20.5645C94.3848 19.5905 94.1628 18.8242 93.7188 18.2656C93.2891 17.6927 92.6875 17.4062 91.9141 17.4062C91.1406 17.4062 90.5319 17.6927 90.0879 18.2656C89.6582 18.8242 89.4434 19.5905 89.4434 20.5645ZM86.3281 20.5645C86.3281 18.9173 86.8509 17.571 87.8965 16.5254C88.9421 15.4655 90.2812 14.9355 91.9141 14.9355C93.5469 14.9355 94.8861 15.4655 95.9316 16.5254C96.9772 17.571 97.5 18.9173 97.5 20.5645C97.5 22.2259 96.9772 23.6009 95.9316 24.6895C94.8861 25.778 93.5469 26.3223 91.9141 26.3223C90.2812 26.3223 88.9421 25.778 87.8965 24.6895C86.8509 23.6009 86.3281 22.2259 86.3281 20.5645ZM99.8633 26V15.2578H102.012L102.592 16.8262C103.394 15.5658 104.561 14.9355 106.094 14.9355C107.555 14.9355 108.672 15.3724 109.445 16.2461C110.219 17.1055 110.605 18.2799 110.605 19.7695V26H107.598V19.7695C107.569 19.0964 107.347 18.5378 106.932 18.0938C106.516 17.6354 105.958 17.4062 105.256 17.4062C104.568 17.4062 104.003 17.6569 103.559 18.1582C103.129 18.6595 102.9 19.2467 102.871 19.9199V26H99.8633ZM112.754 22.7129H115.869C115.869 23.472 116.514 23.8516 117.803 23.8516C118.275 23.8516 118.641 23.7656 118.898 23.5938C119.156 23.4076 119.285 23.1712 119.285 22.8848C119.285 22.6413 119.128 22.4336 118.812 22.2617C118.512 22.0755 118.132 21.9395 117.674 21.8535C117.215 21.7533 116.714 21.6172 116.17 21.4453C115.64 21.2591 115.146 21.0586 114.688 20.8438C114.229 20.6146 113.842 20.2708 113.527 19.8125C113.227 19.3542 113.076 18.8027 113.076 18.1582C113.076 17.1699 113.441 16.3893 114.172 15.8164C114.917 15.2292 116.012 14.9355 117.459 14.9355C119.035 14.9355 120.23 15.2936 121.047 16.0098C121.863 16.7116 122.271 17.5566 122.271 18.5449H119.156C119.156 18.1439 119.02 17.8574 118.748 17.6855C118.476 17.4993 118.046 17.4062 117.459 17.4062C116.628 17.4062 116.213 17.7285 116.213 18.373C116.213 18.7025 116.428 18.9603 116.857 19.1465C117.287 19.3327 117.803 19.4831 118.404 19.5977C119.02 19.7122 119.629 19.8626 120.23 20.0488C120.832 20.235 121.348 20.5645 121.777 21.0371C122.207 21.5098 122.422 22.1257 122.422 22.8848C122.422 23.8874 122.028 24.7109 121.24 25.3555C120.452 26 119.307 26.3223 117.803 26.3223C116.055 26.3223 114.773 25.9785 113.957 25.291C113.155 24.5892 112.754 23.7298 112.754 22.7129ZM124.57 21.4883V15.2578H127.578V21.2734V21.4453C127.578 23.0495 128.287 23.8516 129.705 23.8516C130.622 23.8516 131.281 23.5651 131.682 22.9922C132.097 22.4049 132.305 21.7533 132.305 21.0371V15.2578H135.312V26H133.164L132.627 24.6035C131.882 25.7493 130.701 26.3223 129.082 26.3223C127.592 26.3223 126.468 25.9141 125.709 25.0977C124.95 24.2669 124.57 23.0638 124.57 21.4883ZM138.32 26V11.4551H141.328V26H138.32ZM143.262 17.7285V15.2578H144.98V12.6797H147.988V15.2578H150.631V17.7285H147.988V21.4453C147.988 22.7487 148.325 23.4004 148.998 23.4004H150.631V26H148.719C147.473 26 146.535 25.6562 145.904 24.9688C145.288 24.2669 144.98 23.3073 144.98 22.0898V17.7285H143.262ZM152.564 26V15.2578H155.357V26H152.564ZM152.135 12.4648C152.135 11.9922 152.307 11.6126 152.65 11.3262C153.008 11.0254 153.452 10.875 153.982 10.875C154.512 10.875 154.949 11.0254 155.293 11.3262C155.637 11.6126 155.809 11.9922 155.809 12.4648C155.809 12.9518 155.637 13.3385 155.293 13.625C154.949 13.9115 154.512 14.0547 153.982 14.0547C153.452 14.0547 153.008 13.9115 152.65 13.625C152.307 13.3385 152.135 12.9518 152.135 12.4648ZM158.365 26V15.2578H160.514L161.094 16.8262C161.896 15.5658 163.063 14.9355 164.596 14.9355C166.057 14.9355 167.174 15.3724 167.947 16.2461C168.721 17.1055 169.107 18.2799 169.107 19.7695V26H166.1V19.7695C166.071 19.0964 165.849 18.5378 165.434 18.0938C165.018 17.6354 164.46 17.4062 163.758 17.4062C163.07 17.4062 162.505 17.6569 162.061 18.1582C161.631 18.6595 161.402 19.2467 161.373 19.9199V26H158.365ZM175.145 18.1367C174.643 18.6094 174.393 19.2969 174.393 20.1992C174.393 21.1016 174.643 21.7962 175.145 22.2832C175.646 22.7559 176.219 22.9922 176.863 22.9922C177.436 22.9922 177.93 22.7487 178.346 22.2617C178.775 21.7747 179.005 21.1302 179.033 20.3281V20.1992C179.033 19.3685 178.818 18.6953 178.389 18.1797C177.973 17.6641 177.465 17.4062 176.863 17.4062C176.219 17.4062 175.646 17.6497 175.145 18.1367ZM172.588 23.959C171.7 22.9421 171.256 21.6888 171.256 20.1992C171.256 18.7096 171.7 17.4635 172.588 16.4609C173.476 15.444 174.679 14.9355 176.197 14.9355C177.486 14.9355 178.518 15.5729 179.291 16.8477L179.893 15.2578H182.041V24.002C182.041 28.084 180.172 30.125 176.434 30.125C173.426 30.125 171.922 29.0651 171.922 26.9453H175.037C175.037 27.418 175.503 27.6543 176.434 27.6543C177.307 27.6543 177.952 27.3965 178.367 26.8809C178.797 26.3652 179.019 25.3841 179.033 23.9375C178.288 24.9544 177.343 25.4629 176.197 25.4629C174.679 25.4629 173.476 24.9616 172.588 23.959ZM70.8594 42.4238H74.1035C74.1035 43.1257 74.3971 43.6914 74.9844 44.1211C75.5859 44.5365 76.4167 44.7441 77.4766 44.7441C78.2786 44.7441 78.9303 44.5866 79.4316 44.2715C79.9329 43.9421 80.1836 43.5267 80.1836 43.0254C80.1836 42.61 80.0189 42.2734 79.6895 42.0156C79.3743 41.7435 78.959 41.543 78.4434 41.4141C77.9277 41.2708 77.3548 41.1491 76.7246 41.0488C76.1087 40.9342 75.4857 40.7839 74.8555 40.5977C74.2253 40.3971 73.6523 40.1465 73.1367 39.8457C72.6211 39.5306 72.1986 39.0794 71.8691 38.4922C71.554 37.8906 71.3965 37.1673 71.3965 36.3223C71.3965 35.1908 71.9264 34.2096 72.9863 33.3789C74.0605 32.5482 75.5143 32.1328 77.3477 32.1328C78.4076 32.1328 79.3385 32.2832 80.1406 32.584C80.9427 32.8704 81.5586 33.2572 81.9883 33.7441C82.4323 34.2311 82.7617 34.7396 82.9766 35.2695C83.1914 35.7995 83.2988 36.3509 83.2988 36.9238H80.0547C80.0547 36.2793 79.8398 35.7493 79.4102 35.334C78.9805 34.9186 78.293 34.7109 77.3477 34.7109C76.5742 34.7109 75.9297 34.8613 75.4141 35.1621C74.9128 35.4486 74.6621 35.8353 74.6621 36.3223C74.6621 36.7949 74.8197 37.1888 75.1348 37.5039C75.4642 37.8047 75.8867 38.0267 76.4023 38.1699C76.918 38.3132 77.4909 38.4421 78.1211 38.5566C78.7513 38.6712 79.3743 38.8216 79.9902 39.0078C80.6204 39.1797 81.1934 39.4089 81.709 39.6953C82.2246 39.9674 82.64 40.39 82.9551 40.9629C83.2845 41.5215 83.4492 42.209 83.4492 43.0254C83.4492 44.2572 82.9264 45.2812 81.8809 46.0977C80.8496 46.9141 79.3815 47.3223 77.4766 47.3223C76.3164 47.3223 75.2923 47.179 74.4043 46.8926C73.5306 46.6061 72.8431 46.2266 72.3418 45.7539C71.8405 45.2669 71.4681 44.7441 71.2246 44.1855C70.9811 43.627 70.8594 43.0397 70.8594 42.4238ZM88.2832 41.5645C88.2832 42.5527 88.498 43.3477 88.9277 43.9492C89.3717 44.5508 89.9805 44.8516 90.7539 44.8516C91.5273 44.8516 92.1289 44.5508 92.5586 43.9492C93.0026 43.3477 93.2246 42.5527 93.2246 41.5645C93.2246 40.5905 93.0026 39.8242 92.5586 39.2656C92.1289 38.6927 91.5273 38.4062 90.7539 38.4062C89.9805 38.4062 89.3717 38.6927 88.9277 39.2656C88.498 39.8242 88.2832 40.5905 88.2832 41.5645ZM85.168 41.5645C85.168 39.9173 85.6908 38.571 86.7363 37.5254C87.7819 36.4655 89.1211 35.9355 90.7539 35.9355C92.3867 35.9355 93.7259 36.4655 94.7715 37.5254C95.8171 38.571 96.3398 39.9173 96.3398 41.5645C96.3398 43.2259 95.8171 44.6009 94.7715 45.6895C93.7259 46.778 92.3867 47.3223 90.7539 47.3223C89.1211 47.3223 87.7819 46.778 86.7363 45.6895C85.6908 44.6009 85.168 43.2259 85.168 41.5645ZM98.7031 47V32.4551H101.711V47H98.7031ZM104.504 42.4883V36.2578H107.512V42.2734V42.4453C107.512 44.0495 108.221 44.8516 109.639 44.8516C110.555 44.8516 111.214 44.5651 111.615 43.9922C112.031 43.4049 112.238 42.7533 112.238 42.0371V36.2578H115.246V47H113.098L112.561 45.6035C111.816 46.7493 110.634 47.3223 109.016 47.3223C107.526 47.3223 106.402 46.9141 105.643 46.0977C104.883 45.2669 104.504 44.0638 104.504 42.4883ZM117.18 38.7285V36.2578H118.898V33.6797H121.906V36.2578H124.549V38.7285H121.906V42.4453C121.906 43.7487 122.243 44.4004 122.916 44.4004H124.549V47H122.637C121.391 47 120.452 46.6562 119.822 45.9688C119.206 45.2669 118.898 44.3073 118.898 43.0898V38.7285H117.18ZM126.482 47V36.2578H129.275V47H126.482ZM126.053 33.4648C126.053 32.9922 126.225 32.6126 126.568 32.3262C126.926 32.0254 127.37 31.875 127.9 31.875C128.43 31.875 128.867 32.0254 129.211 32.3262C129.555 32.6126 129.727 32.9922 129.727 33.4648C129.727 33.9518 129.555 34.3385 129.211 34.625C128.867 34.9115 128.43 35.0547 127.9 35.0547C127.37 35.0547 126.926 34.9115 126.568 34.625C126.225 34.3385 126.053 33.9518 126.053 33.4648ZM134.754 41.5645C134.754 42.5527 134.969 43.3477 135.398 43.9492C135.842 44.5508 136.451 44.8516 137.225 44.8516C137.998 44.8516 138.6 44.5508 139.029 43.9492C139.473 43.3477 139.695 42.5527 139.695 41.5645C139.695 40.5905 139.473 39.8242 139.029 39.2656C138.6 38.6927 137.998 38.4062 137.225 38.4062C136.451 38.4062 135.842 38.6927 135.398 39.2656C134.969 39.8242 134.754 40.5905 134.754 41.5645ZM131.639 41.5645C131.639 39.9173 132.161 38.571 133.207 37.5254C134.253 36.4655 135.592 35.9355 137.225 35.9355C138.857 35.9355 140.197 36.4655 141.242 37.5254C142.288 38.571 142.811 39.9173 142.811 41.5645C142.811 43.2259 142.288 44.6009 141.242 45.6895C140.197 46.778 138.857 47.3223 137.225 47.3223C135.592 47.3223 134.253 46.778 133.207 45.6895C132.161 44.6009 131.639 43.2259 131.639 41.5645ZM145.174 47V36.2578H147.322L147.902 37.8262C148.704 36.5658 149.872 35.9355 151.404 35.9355C152.865 35.9355 153.982 36.3724 154.756 37.2461C155.529 38.1055 155.916 39.2799 155.916 40.7695V47H152.908V40.7695C152.88 40.0964 152.658 39.5378 152.242 39.0938C151.827 38.6354 151.268 38.4062 150.566 38.4062C149.879 38.4062 149.313 38.6569 148.869 39.1582C148.439 39.6595 148.21 40.2467 148.182 40.9199V47H145.174Z" fill="white"/>
<circle cx="30" cy="30" r="30" fill="white"/>
<path d="M15.83 27H17.45V32.68H20.96V34H15.83V27ZM25.138 34.12C24.4113 34.12 23.7546 33.9633 23.168 33.65C22.588 33.3367 22.1313 32.9067 21.798 32.36C21.4713 31.8067 21.308 31.1867 21.308 30.5C21.308 29.8133 21.4713 29.1967 21.798 28.65C22.1313 28.0967 22.588 27.6633 23.168 27.35C23.7546 27.0367 24.4113 26.88 25.138 26.88C25.8646 26.88 26.518 27.0367 27.098 27.35C27.678 27.6633 28.1346 28.0967 28.468 28.65C28.8013 29.1967 28.968 29.8133 28.968 30.5C28.968 31.1867 28.8013 31.8067 28.468 32.36C28.1346 32.9067 27.678 33.3367 27.098 33.65C26.518 33.9633 25.8646 34.12 25.138 34.12ZM25.138 32.74C25.5513 32.74 25.9246 32.6467 26.258 32.46C26.5913 32.2667 26.8513 32 27.038 31.66C27.2313 31.32 27.328 30.9333 27.328 30.5C27.328 30.0667 27.2313 29.68 27.038 29.34C26.8513 29 26.5913 28.7367 26.258 28.55C25.9246 28.3567 25.5513 28.26 25.138 28.26C24.7246 28.26 24.3513 28.3567 24.018 28.55C23.6846 28.7367 23.4213 29 23.228 29.34C23.0413 29.68 22.948 30.0667 22.948 30.5C22.948 30.9333 23.0413 31.32 23.228 31.66C23.4213 32 23.6846 32.2667 24.018 32.46C24.3513 32.6467 24.7246 32.74 25.138 32.74ZM34.9155 30.39H36.3955V33.23C36.0155 33.5167 35.5755 33.7367 35.0755 33.89C34.5755 34.0433 34.0721 34.12 33.5655 34.12C32.8388 34.12 32.1855 33.9667 31.6055 33.66C31.0255 33.3467 30.5688 32.9167 30.2355 32.37C29.9088 31.8167 29.7455 31.1933 29.7455 30.5C29.7455 29.8067 29.9088 29.1867 30.2355 28.64C30.5688 28.0867 31.0288 27.6567 31.6155 27.35C32.2021 27.0367 32.8621 26.88 33.5955 26.88C34.2088 26.88 34.7655 26.9833 35.2655 27.19C35.7655 27.3967 36.1855 27.6967 36.5255 28.09L35.4855 29.05C34.9855 28.5233 34.3821 28.26 33.6755 28.26C33.2288 28.26 32.8321 28.3533 32.4855 28.54C32.1388 28.7267 31.8688 28.99 31.6755 29.33C31.4821 29.67 31.3855 30.06 31.3855 30.5C31.3855 30.9333 31.4821 31.32 31.6755 31.66C31.8688 32 32.1355 32.2667 32.4755 32.46C32.8221 32.6467 33.2155 32.74 33.6555 32.74C34.1221 32.74 34.5421 32.64 34.9155 32.44V30.39ZM41.2903 34.12C40.5636 34.12 39.907 33.9633 39.3203 33.65C38.7403 33.3367 38.2836 32.9067 37.9503 32.36C37.6236 31.8067 37.4603 31.1867 37.4603 30.5C37.4603 29.8133 37.6236 29.1967 37.9503 28.65C38.2836 28.0967 38.7403 27.6633 39.3203 27.35C39.907 27.0367 40.5636 26.88 41.2903 26.88C42.017 26.88 42.6703 27.0367 43.2503 27.35C43.8303 27.6633 44.287 28.0967 44.6203 28.65C44.9536 29.1967 45.1203 29.8133 45.1203 30.5C45.1203 31.1867 44.9536 31.8067 44.6203 32.36C44.287 32.9067 43.8303 33.3367 43.2503 33.65C42.6703 33.9633 42.017 34.12 41.2903 34.12ZM41.2903 32.74C41.7036 32.74 42.077 32.6467 42.4103 32.46C42.7436 32.2667 43.0036 32 43.1903 31.66C43.3836 31.32 43.4803 30.9333 43.4803 30.5C43.4803 30.0667 43.3836 29.68 43.1903 29.34C43.0036 29 42.7436 28.7367 42.4103 28.55C42.077 28.3567 41.7036 28.26 41.2903 28.26C40.877 28.26 40.5036 28.3567 40.1703 28.55C39.837 28.7367 39.5736 29 39.3803 29.34C39.1936 29.68 39.1003 30.0667 39.1003 30.5C39.1003 30.9333 39.1936 31.32 39.3803 31.66C39.5736 32 39.837 32.2667 40.1703 32.46C40.5036 32.6467 40.877 32.74 41.2903 32.74Z" fill="#222222"/>
</svg>
