<svg xmlns="http://www.w3.org/2000/svg" viewBox="0 0 34 48" width="34" height="48">
	<style>
		tspan { white-space:pre }
		.shp0 { fill: none;stroke: #22222b } 
		.shp1 { opacity: 0.302;fill: none;stroke: #22222b } 
	</style>
	<path id="Round" class="shp0" d="M17 1C24.18 1 30 6.82 30 14L30 33C30 40.18 24.18 46 17 46C9.82 46 4 40.18 4 33L4 14C4 6.82 9.82 1 17 1Z" />
	<path id="Ellipse Small" class="shp1" d="M17 24C18.1 24 19 24.9 19 26C19 27.1 18.1 28 17 28C15.9 28 15 27.1 15 26C15 24.9 15.9 24 17 24Z" />
	<path id="Ellipse" class="shp0" d="M17 11C18.66 11 20 12.34 20 14C20 15.66 18.66 17 17 17C15.34 17 14 15.66 14 14C14 12.34 15.34 11 17 11Z" />
</svg>