<svg xmlns="http://www.w3.org/2000/svg" xmlns:xlink="http://www.w3.org/1999/xlink" width="70" height="70" viewBox="0 0 70 70">
  <defs>
    <clipPath id="clip-path">
      <rect id="Прямоугольник_30" data-name="Прямоугольник 30" width="70" height="70" transform="translate(0)" fill="none"/>
    </clipPath>
    <clipPath id="clip-path-2">
      <rect id="Прямоугольник_99" data-name="Прямоугольник 99" width="49.063" height="28.277" fill="none"/>
    </clipPath>
  </defs>
  <g id="Сгруппировать_91" data-name="Сгруппировать 91" transform="translate(-1380 -871)">
    <g id="Сгруппировать_49" data-name="Сгруппировать 49" transform="translate(1380 871)" clip-path="url(#clip-path)">
      <ellipse id="Эллипс_21" data-name="Эллипс 21" cx="34.266" cy="34.135" rx="34.266" ry="34.135" transform="translate(0.734 0.865)" fill="none" stroke="#271f20" stroke-width="2"/>
    </g>
    <g id="Сгруппировать_195" data-name="Сгруппировать 195" transform="translate(1390.046 892.333)">
      <g id="Сгруппировать_195-2" data-name="Сгруппировать 195" transform="translate(0 0)" clip-path="url(#clip-path-2)">
        <path id="Контур_267" data-name="Контур 267" d="M14.36,0a1.285,1.285,0,0,0-1.285,1.285v.522H7.934a1.363,1.363,0,0,0-.281,0,1.293,1.293,0,0,0,.281,2.571h5.141V6.667h-9.2q-.06,0-.12,0a1.287,1.287,0,0,0,.107,2.571h9.211v2.45H1.346a1.059,1.059,0,0,0-.12,0,1.286,1.286,0,1,0,.12,2.57H13.075v1.165a1.285,1.285,0,0,0,1.285,1.285H33.64a1.284,1.284,0,0,0,1.285-1.285V1.285A1.284,1.284,0,0,0,33.64,0ZM37.5,6.427v9a3.861,3.861,0,0,1-3.856,3.856H16.931v3.856a1.285,1.285,0,0,0,1.285,1.285h1.446a5.119,5.119,0,0,1,9.921,0h6.788a5.118,5.118,0,0,1,9.921,0h1.487a1.284,1.284,0,0,0,1.285-1.285V15.424a1.347,1.347,0,0,0-.241-.723L43.681,6.99a1.233,1.233,0,0,0-1.044-.563H37.5Zm2.571,1.285h1.285a1.235,1.235,0,0,1,1.045.563l3.856,5.784a1.351,1.351,0,0,1,.241.723v1.928a1.284,1.284,0,0,1-1.285,1.285H40.066a1.284,1.284,0,0,1-1.285-1.285V9a1.284,1.284,0,0,1,1.285-1.285m0,1.285v7.712h5.141V14.781L41.351,9ZM24.642,23.136a2.571,2.571,0,1,0,2.571,2.571,2.571,2.571,0,0,0-2.571-2.571m16.709,0a2.571,2.571,0,1,0,2.571,2.571,2.571,2.571,0,0,0-2.571-2.571" transform="translate(0 0)"/>
      </g>
    </g>
  </g>
</svg>
