<svg xmlns="http://www.w3.org/2000/svg" xmlns:xlink="http://www.w3.org/1999/xlink" width="70" height="70" viewBox="0 0 70 70">
  <defs>
    <clipPath id="clip-path">
      <rect id="Прямоугольник_30" data-name="Прямоугольник 30" width="70" height="70" transform="translate(0)" fill="none"/>
    </clipPath>
    <clipPath id="clip-path-2">
      <rect id="Прямоугольник_100" data-name="Прямоугольник 100" width="37.42" height="30.695" fill="none"/>
    </clipPath>
  </defs>
  <g id="Сгруппировать_91" data-name="Сгруппировать 91" transform="translate(-1380 -871)">
    <g id="Сгруппировать_49" data-name="Сгруппировать 49" transform="translate(1380 871)" clip-path="url(#clip-path)">
      <ellipse id="Эллипс_21" data-name="Эллипс 21" cx="34.266" cy="34.135" rx="34.266" ry="34.135" transform="translate(0.734 0.865)" fill="none" stroke="#271f20" stroke-width="2"/>
    </g>
    <g id="Сгруппировать_196" data-name="Сгруппировать 196" transform="translate(1396 891)">
      <g id="Сгруппировать_196-2" data-name="Сгруппировать 196" transform="translate(0 0)" clip-path="url(#clip-path-2)">
        <path id="Контур_268" data-name="Контур 268" d="M35.537,4.21H1.885L5.97.242A.854.854,0,0,1,6.569,0H30.854a.855.855,0,0,1,.6.242ZM37.42,7.635v22.2a.856.856,0,0,1-.856.856H.856A.856.856,0,0,1,0,29.839V7.633a.857.857,0,0,1,.856-.856H36.564a.856.856,0,0,1,.856.856Zm-9.668,12.3a5.869,5.869,0,0,0-5.866-5.866H14.052l1.413-1.413a1.287,1.287,0,1,0-1.815-1.824l-3.605,3.614a1.3,1.3,0,0,0-.283.42c0,.009,0,.009-.009.017a1.423,1.423,0,0,0-.086.471,1.373,1.373,0,0,0,.086.462.029.029,0,0,1,.009.026,1.425,1.425,0,0,0,.283.42l3.605,3.605a1.284,1.284,0,0,0,1.815-1.815l-1.413-1.413h7.835a3.3,3.3,0,1,1,0,6.594H10.952a1.284,1.284,0,1,0,0,2.569H21.887a5.868,5.868,0,0,0,5.866-5.866" transform="translate(0 0)"/>
      </g>
    </g>
  </g>
</svg>
