<svg width="20" height="20" viewBox="0 0 20 20" fill="none" xmlns="http://www.w3.org/2000/svg">
<path d="M20 14.9111V18.84C20.0001 19.1213 19.8936 19.3922 19.7018 19.598C19.51 19.8038 19.2473 19.9292 18.9667 19.9489C18.4811 19.9822 18.0844 20 17.7778 20C7.95889 20 0 12.0411 0 2.22222C0 1.91556 0.0166667 1.51889 0.0511111 1.03333C0.0708027 0.752716 0.196201 0.490012 0.402004 0.298232C0.607807 0.106452 0.878692 -0.000127148 1.16 2.85088e-07H5.08889C5.22671 -0.000139261 5.35966 0.0509545 5.46192 0.143356C5.56418 0.235758 5.62844 0.36287 5.64222 0.5C5.66778 0.755556 5.69111 0.958889 5.71333 1.11333C5.93415 2.65436 6.38667 4.15315 7.05556 5.55889C7.16111 5.78111 7.09222 6.04667 6.89222 6.18889L4.49444 7.90222C5.9605 11.3183 8.68283 14.0406 12.0989 15.5067L13.81 13.1133C13.8799 13.0156 13.982 12.9454 14.0983 12.9152C14.2147 12.8849 14.338 12.8965 14.4467 12.9478C15.8522 13.6154 17.3506 14.0668 18.8911 14.2867C19.0456 14.3089 19.2489 14.3333 19.5022 14.3578C19.6392 14.3718 19.766 14.4362 19.8582 14.5384C19.9503 14.6407 20.0013 14.7735 20.0011 14.9111H20Z" fill="white"/>
</svg>
