<svg width="20" height="17" viewBox="0 0 20 17" fill="none" xmlns="http://www.w3.org/2000/svg">
<path d="M19.543 3.16467C20 4.94667 20 8.66667 20 8.66667C20 8.66667 20 12.3867 19.543 14.1687C19.289 15.1537 18.546 15.9287 17.605 16.1907C15.896 16.6667 10 16.6667 10 16.6667C10 16.6667 4.107 16.6667 2.395 16.1907C1.45 15.9247 0.708 15.1507 0.457 14.1687C2.98023e-08 12.3867 0 8.66667 0 8.66667C0 8.66667 2.98023e-08 4.94667 0.457 3.16467C0.711 2.17967 1.454 1.40467 2.395 1.14267C4.107 0.666668 10 0.666668 10 0.666668C10 0.666668 15.896 0.666668 17.605 1.14267C18.55 1.40867 19.292 2.18267 19.543 3.16467ZM8 12.1667L14 8.66667L8 5.16667V12.1667Z" fill="white"/>
</svg>
