<svg width="17" height="20" viewBox="0 0 17 20" fill="none" xmlns="http://www.w3.org/2000/svg">
<path d="M14.1422 14.1421L8.28428 20L2.42637 14.1421C1.26781 12.9835 0.478818 11.5074 0.159176 9.90041C-0.160466 8.29343 0.00359615 6.62774 0.630616 5.11399C1.25764 3.60025 2.31945 2.30643 3.68179 1.39614C5.04413 0.485861 6.6458 0 8.28428 0C9.92274 0 11.5244 0.485861 12.8868 1.39614C14.2491 2.30643 15.3109 3.60025 15.9379 5.11399C16.565 6.62774 16.729 8.29343 16.4094 9.90041C16.0897 11.5074 15.3007 12.9835 14.1422 14.1421ZM8.28428 10.1251C8.77252 10.1251 9.24078 9.93119 9.58602 9.58595C9.93127 9.2407 10.1252 8.77245 10.1252 8.2842C10.1252 7.79595 9.93127 7.3277 9.58602 6.98245C9.24078 6.63721 8.77252 6.44325 8.28428 6.44325C7.79602 6.44325 7.32777 6.63721 6.98253 6.98245C6.63728 7.3277 6.44333 7.79595 6.44333 8.2842C6.44333 8.77245 6.63728 9.2407 6.98253 9.58595C7.32777 9.93119 7.79602 10.1251 8.28428 10.1251Z" fill="#222222"/>
</svg>
