<svg width="20" height="16" viewBox="0 0 20 16" fill="none" xmlns="http://www.w3.org/2000/svg">
<path d="M1 0H19C19.2652 0 19.5196 0.0936505 19.7071 0.260349C19.8946 0.427048 20 0.653141 20 0.888889V15.1111C20 15.3469 19.8946 15.573 19.7071 15.7397C19.5196 15.9064 19.2652 16 19 16H1C0.734784 16 0.48043 15.9064 0.292893 15.7397C0.105357 15.573 0 15.3469 0 15.1111V0.888889C0 0.653141 0.105357 0.427048 0.292893 0.260349C0.48043 0.0936505 0.734784 0 1 0ZM10.06 7.71822L3.648 2.87822L2.353 4.23289L10.073 10.0596L17.654 4.22844L16.346 2.88356L10.061 7.71822H10.06Z" fill="#222222"/>
</svg>
