<svg xmlns="http://www.w3.org/2000/svg" viewBox="0 0 39 38" width="39" height="38">
	<style>
		tspan { white-space:pre }
		.shp0 { opacity: 0.078;fill: #000000 } 
	</style>
	<path id="Quote" class="shp0" d="M9.05 17.53L9.05 20.74L16.89 20.74L16.89 38L0 38L0 20.74L0 20.74L0 17.53C0 11.02 1.83 6.18 5.45 3.16C7.95 1.06 11.12 0 14.87 0L14.87 9.25C12.83 9.25 9.05 9.25 9.05 17.53ZM36.97 9.25L36.97 0C33.23 0 30.06 1.06 27.56 3.16C23.94 6.18 22.11 11.02 22.11 17.53L22.11 20.74L22.11 20.74L22.11 38L39 38L39 20.74L31.16 20.74L31.16 17.53C31.16 9.25 34.94 9.25 36.97 9.25Z" />
</svg>