<svg width="32" height="38" viewBox="0 0 32 38" fill="none" xmlns="http://www.w3.org/2000/svg">
<path fill-rule="evenodd" clip-rule="evenodd" d="M6 0C2.68629 0 0 2.68629 0 6V26C0 29.3137 2.68629 32 6 32H11L16 38L21 32H26C29.3137 32 32 29.3137 32 26V6C32 2.68629 29.3137 0 26 0H6Z" fill="#1AA7BD"/>
<path d="M16.3825 7.38379C16.2716 7.29732 16.135 7.25037 15.9944 7.25037C15.8538 7.25037 15.7172 7.29732 15.6062 7.38379L6.625 14.3869L7.40188 15.3694L8.5 14.5132V22.25C8.50066 22.5814 8.63257 22.8989 8.86685 23.1332C9.10112 23.3675 9.41868 23.4994 9.75 23.5H22.25C22.5813 23.4994 22.8989 23.3675 23.1332 23.1332C23.3674 22.8989 23.4993 22.5814 23.5 22.25V14.5188L24.5981 15.375L25.375 14.3925L16.3825 7.38379ZM17.25 22.25H14.75V17.25H17.25V22.25ZM18.5 22.25V17.25C18.4997 16.9186 18.3679 16.6009 18.1335 16.3665C17.8992 16.1322 17.5814 16.0004 17.25 16H14.75C14.4186 16.0004 14.1008 16.1322 13.8665 16.3665C13.6321 16.6009 13.5003 16.9186 13.5 17.25V22.25H9.75V13.5388L16 8.67004L22.25 13.545V22.25H18.5Z" fill="white"/>
</svg>
