<svg width="30" height="20" viewBox="0 0 30 20" fill="none" xmlns="http://www.w3.org/2000/svg">
<path d="M10.6748 9.56056C11.7451 8.70367 12.3313 7.4958 12.3313 6.0713C12.3313 3.78349 10.4504 1.32275 6.3209 1.32275C3.93795 1.32275 1.99469 2.02729 1.05423 2.62962L0.497547 2.98638L1.73434 7.37624L2.73843 6.75848C3.25912 6.43835 4.42006 5.96138 5.48651 5.96138C6.00784 5.96138 6.8808 6.05652 6.8808 6.69034C6.8808 7.34281 5.74814 7.5858 5.03332 7.5858H2.71529V11.9628H5.08282C5.31102 11.9628 7.31149 12.0014 7.31149 13.3108C7.31149 14.3843 5.82464 14.4679 5.36952 14.4679C4.06265 14.4679 2.73008 13.9183 2.20746 13.6264L1.21044 13.0723L0 17.5605L0.574043 17.907C1.53314 18.4862 3.36583 19.1071 5.63115 19.1071C9.95286 19.1071 12.8565 16.854 12.8565 13.5004C12.8565 11.8336 12.0285 10.4065 10.6748 9.56056Z" fill="white"/>
<path d="M26.7612 2.78643C25.0159 1.477 22.8161 0.893311 19.6303 0.893311C17.869 0.893311 16.0832 1.02509 14.6066 1.26165L13.8564 1.3825V18.661L14.6278 18.7645C15.4584 18.877 16.8687 19.0113 18.8679 19.0113C22.3064 19.0113 25.0718 18.2226 26.8781 16.7242C28.2255 15.5658 29.8313 13.3802 29.8313 9.54702C29.8326 6.61574 28.7693 4.27843 26.7612 2.78643ZM23.0032 13.2696C22.2447 14.0159 21.1319 14.3952 19.6316 14.3952H19.6303C19.5191 14.3952 19.3905 14.3952 19.2594 14.3939V5.48822C19.4644 5.4728 19.7132 5.46187 20.0109 5.46187C22.7621 5.46187 24.2156 6.91594 24.2156 9.66594C24.2156 11.2659 23.8074 12.4789 23.0032 13.2696Z" fill="white"/>
</svg>
