<svg width="30" height="30" viewBox="0 0 30 30" fill="none" xmlns="http://www.w3.org/2000/svg">
<path d="M22.9102 5.15962L15 0.592529L7.08984 5.15962V11.6467L0 15.7065V24.8406L7.96875 29.4076L15 25.3479L22.0312 29.4076L30 24.8406V15.7065L22.9102 11.6467V5.15962ZM12.3633 22.8107L7.96875 25.3479L3.57422 22.8107V17.7364L7.96875 15.1992L12.3633 17.7364V22.8107ZM10.6055 12.2638V7.18948L15 4.65231L19.3945 7.18948V12.2638L15 14.801L10.6055 12.2638ZM26.4258 17.7364V22.8107L22.0312 25.3479L17.6367 22.8107V17.7364L22.0312 15.1992L26.4258 17.7364Z" fill="white"/>
</svg>
