<svg width="32" height="24" viewBox="0 0 32 24" fill="none" xmlns="http://www.w3.org/2000/svg">
<path d="M31.2018 14.4549H26.8335V13.4667C26.8335 12.89 26.399 12.4304 25.8202 12.4304H22.6967C22.1179 12.4304 21.6193 12.89 21.6193 13.4667V13.5176L19.5244 13.7959C18.4644 13.9374 17.6694 14.8412 17.6694 15.9103V20.0589C17.6694 21.128 18.4651 22.0324 19.5244 22.1733L21.6193 22.4516V22.5011C21.6193 23.0799 22.1179 23.5666 22.6967 23.5666H25.8202C26.399 23.5666 26.8335 23.0799 26.8335 22.5011V21.4913H31.2018C31.6551 21.4913 32.0003 21.1398 32.0003 20.6844V15.2826C32.0003 14.8294 31.6558 14.4549 31.2018 14.4549ZM21.6214 20.3476L19.7964 20.1063C19.7734 20.1028 19.7476 20.0833 19.7476 20.0603V15.9117C19.7476 15.8887 19.7734 15.8684 19.7964 15.8663L21.6214 15.6244V20.3476Z" fill="white"/>
<path d="M13.5979 12.4304H7.21215C6.09497 12.4304 5.16469 13.3356 5.16469 14.4514V14.4549H0.849391C0.394709 14.4549 0 14.8294 0 15.284V20.6858C0 21.1405 0.394011 21.4927 0.849391 21.4927H5.16469V21.5457C5.16469 22.6636 6.09497 23.568 7.21215 23.568H13.5979C14.7151 23.568 15.5945 22.6629 15.5945 21.5457V14.4514C15.5945 13.3342 14.7144 12.4304 13.5979 12.4304ZM12.759 20.1454C12.759 20.3588 12.5867 20.531 12.374 20.531H8.38442C8.17173 20.531 7.99948 20.3588 7.99948 20.1454V15.8015C7.99948 15.5881 8.17173 15.4165 8.38442 15.4165H12.374C12.5867 15.4165 12.759 15.5881 12.759 15.8015V20.1454Z" fill="white"/>
<path d="M3.51875 7.92416H9.0635V10.0086C9.0635 10.2854 9.25109 10.5358 9.50632 10.6418C9.76295 10.7478 10.0677 10.6885 10.263 10.4932L14.7149 6.04615C14.9827 5.77906 14.9855 5.3453 14.7177 5.07821L10.2734 0.630412C10.0775 0.434452 9.76295 0.375874 9.50563 0.482571C9.25039 0.587873 9.0628 0.838227 9.0628 1.11438V3.26506H3.51875C2.60938 3.26506 1.82275 3.96103 1.82275 4.87109V6.25187C1.82275 7.16263 2.60938 7.92416 3.51875 7.92416Z" fill="white"/>
<path d="M22.524 10.6417C22.7806 10.5364 22.9354 10.2861 22.9354 10.0085V7.9241H28.5457C29.4565 7.9241 30.1762 7.16258 30.1762 6.25321V4.87243C30.1762 3.96167 29.4565 3.2664 28.5457 3.2664H22.9354V1.11502C22.9354 0.838868 22.7813 0.589211 22.5254 0.483212C22.2694 0.377212 21.9814 0.435094 21.7855 0.631751L17.3412 5.07885C17.0727 5.34594 17.0734 5.7797 17.3418 6.04679L21.7883 10.4939C21.9842 10.6885 22.268 10.747 22.524 10.6417Z" fill="white"/>
</svg>
