<svg xmlns="http://www.w3.org/2000/svg" viewBox="0 0 102 28" width="102" height="28">
	<style>
		tspan { white-space:pre }
		.shp0 { fill: #ee252d } 
	</style>
	<path id="Shape 2" class="shp0" d="M14.22 11.55C9.95 11.55 5.57 14.67 5.57 18.51C5.57 19.97 6.06 21.53 7.42 22.49C8.09 23.03 8.09 23.81 7.32 24.66C6.41 25.66 5.08 26.44 3.74 26.44C2.13 26.44 0 24.91 0 21.96C0 20.32 1.05 16.81 5.25 13.61C9.66 10.2 13.45 9.06 17.79 8.78C26.97 1.35 34.4 0 39.79 0C45.68 0 50.93 1.92 53.59 2.98C55.98 3.91 65.22 7.82 71.77 10.73C78.64 13.61 84.56 15.35 88.62 15.35C91.88 15.35 96.58 14.18 96.58 10.13C96.58 8.63 95.98 7.6 95.17 7C94.72 6.61 94.37 6.04 94.37 5.54C94.37 4.05 95.7 1.77 98.01 1.77C100.6 1.77 102 4.4 102 6.39C102 11.79 96.19 15.46 92.27 17.09C85.05 24.87 77.76 28 70.69 28C65.5 28 60.53 26.58 53.94 24.16C48.97 22.31 33.35 15.85 27.07 13.82C21.3 12.01 18 11.55 14.29 11.55L14.22 11.55ZM34.36 2.95C29.56 2.95 25.01 5.4 22.77 9.02C25.5 9.06 29.63 9.66 36.46 12.19C43.29 14.53 55.91 20 60.32 21.53C65.22 23.17 69.92 24.52 74.58 24.52C79.79 24.52 84.45 22.78 86.91 18.3C82.04 18.94 77.45 18.16 70.69 15.49C65.5 13.47 51.21 6.82 46.38 5.15C42.31 3.76 38.39 2.95 34.43 2.95L34.36 2.95Z" />
</svg>