<svg width="18" height="16" viewBox="0 0 18 16" fill="none" xmlns="http://www.w3.org/2000/svg">
<path fill-rule="evenodd" clip-rule="evenodd" d="M1.95386 0.25C1.40157 0.25 0.953857 0.697715 0.953857 1.25C0.953857 1.80228 1.40157 2.25 1.95386 2.25H2.6736L3.22796 4.46949L4.48178 10.7401C4.59511 11.307 4.90142 11.8171 5.34857 12.1836C5.79563 12.55 6.35624 12.7501 6.93426 12.75H14.0964C14.7164 12.75 15.3142 12.5196 15.7739 12.1036C16.2335 11.6876 16.5222 11.1156 16.5839 10.4988L17.0339 5.99875C17.0687 5.65121 17.0302 5.30024 16.921 4.96847C16.8118 4.6367 16.6343 4.33149 16.4 4.07252C16.1656 3.81354 15.8796 3.60655 15.5603 3.46488C15.2411 3.32321 14.8956 3.25001 14.5464 3.25H4.98481L4.56638 1.57475C4.47158 1.19632 4.25305 0.860415 3.9455 0.620397C3.63794 0.380379 3.25898 0.25001 2.86886 0.25H1.95386ZM6.44296 10.3479L5.42361 5.25H14.5464C14.6162 5.25001 14.6853 5.26465 14.7491 5.29298C14.813 5.32131 14.8702 5.36271 14.917 5.4145C14.9639 5.4663 14.9994 5.52734 15.0213 5.59369C15.0431 5.66005 15.0508 5.73024 15.0438 5.79975L14.5938 10.2997C14.5815 10.4231 14.5238 10.5375 14.4318 10.6207C14.3399 10.7039 14.2203 10.75 14.0963 10.75H6.93347C6.81784 10.75 6.70576 10.71 6.61633 10.6367C6.5269 10.5634 6.46562 10.4613 6.44296 10.3479ZM5.45386 14.75C5.45386 14.1977 5.90157 13.75 6.45386 13.75H7.95386C8.50614 13.75 8.95386 14.1977 8.95386 14.75C8.95386 15.3023 8.50614 15.75 7.95386 15.75H6.45386C5.90157 15.75 5.45386 15.3023 5.45386 14.75ZM12.4539 13.75C11.9016 13.75 11.4539 14.1977 11.4539 14.75C11.4539 15.3023 11.9016 15.75 12.4539 15.75H13.9539C14.5061 15.75 14.9539 15.3023 14.9539 14.75C14.9539 14.1977 14.5061 13.75 13.9539 13.75H12.4539Z" fill="white"/>
</svg>
