<svg width="21" height="21" viewBox="0 0 21 21" fill="none" xmlns="http://www.w3.org/2000/svg">
<path d="M10.5 7.24584C8.708 7.24584 7.2456 8.70825 7.2456 10.5002C7.2456 12.2922 8.708 13.7546 10.5 13.7546C12.292 13.7546 13.7544 12.2922 13.7544 10.5002C13.7544 8.70825 12.292 7.24584 10.5 7.24584ZM20.2607 10.5002C20.2607 9.15258 20.2729 7.81713 20.1973 6.47192C20.1216 4.90942 19.7651 3.5227 18.6226 2.38012C17.4775 1.2351 16.0933 0.881097 14.5308 0.805414C13.1831 0.72973 11.8477 0.741937 10.5024 0.741937C9.15478 0.741937 7.81933 0.72973 6.47412 0.805414C4.91162 0.881097 3.5249 1.23754 2.38232 2.38012C1.2373 3.52514 0.883295 4.90942 0.807611 6.47192C0.731927 7.81957 0.744134 9.15502 0.744134 10.5002C0.744134 11.8455 0.731927 13.1833 0.807611 14.5286C0.883295 16.0911 1.23974 17.4778 2.38232 18.6204C3.52734 19.7654 4.91162 20.1194 6.47412 20.1951C7.82177 20.2707 9.15722 20.2585 10.5024 20.2585C11.8501 20.2585 13.1855 20.2707 14.5308 20.1951C16.0933 20.1194 17.48 19.7629 18.6226 18.6204C19.7676 17.4753 20.1216 16.0911 20.1973 14.5286C20.2754 13.1833 20.2607 11.8479 20.2607 10.5002ZM10.5 15.5076C7.729 15.5076 5.49267 13.2712 5.49267 10.5002C5.49267 7.72924 7.729 5.49291 10.5 5.49291C13.271 5.49291 15.5073 7.72924 15.5073 10.5002C15.5073 13.2712 13.271 15.5076 10.5 15.5076ZM15.7124 6.45727C15.0654 6.45727 14.543 5.93481 14.543 5.28784C14.543 4.64086 15.0654 4.1184 15.7124 4.1184C16.3594 4.1184 16.8818 4.64086 16.8818 5.28784C16.882 5.44146 16.8519 5.59362 16.7932 5.73559C16.7345 5.87756 16.6484 6.00655 16.5397 6.11518C16.4311 6.22381 16.3021 6.30994 16.1602 6.36864C16.0182 6.42735 15.866 6.45746 15.7124 6.45727Z" fill="#828282"/>
</svg>
