<svg width="22" height="21" viewBox="0 0 22 21" fill="none" xmlns="http://www.w3.org/2000/svg">
<path d="M10.5133 5.23315C9.99413 5.23315 9.48661 5.38711 9.05493 5.67555C8.62326 5.96399 8.2868 6.37395 8.08812 6.85361C7.88944 7.33327 7.83746 7.86107 7.93875 8.37027C8.04003 8.87947 8.29004 9.3472 8.65715 9.71431C9.02426 10.0814 9.49199 10.3314 10.0012 10.4327C10.5104 10.534 11.0382 10.482 11.5179 10.2833C11.9975 10.0847 12.4075 9.7482 12.6959 9.31653C12.9844 8.88485 13.1383 8.37733 13.1383 7.85815C13.1375 7.1622 12.8607 6.49499 12.3686 6.00287C11.8765 5.51076 11.2093 5.23395 10.5133 5.23315ZM10.5133 9.17065C10.2537 9.17065 9.99996 9.09368 9.78412 8.94946C9.56828 8.80524 9.40005 8.60025 9.30071 8.36043C9.20137 8.1206 9.17538 7.8567 9.22603 7.6021C9.27667 7.3475 9.40167 7.11363 9.58523 6.93008C9.76879 6.74652 10.0027 6.62152 10.2573 6.57087C10.5119 6.52023 10.7757 6.54622 11.0156 6.64556C11.2554 6.7449 11.4604 6.91313 11.6046 7.12897C11.7488 7.34481 11.8258 7.59857 11.8258 7.85815C11.8254 8.20613 11.687 8.53973 11.4409 8.78579C11.1949 9.03184 10.8613 9.17025 10.5133 9.17065Z" fill="white"/>
<path d="M15.5574 2.81016C14.3103 1.5633 12.6454 0.82262 10.8843 0.731063C9.12309 0.639505 7.39043 1.20356 6.02069 2.31438C4.65095 3.42519 3.74123 5.00401 3.4671 6.74612C3.19297 8.48823 3.57387 10.2701 4.53629 11.7479L9.49536 19.3609C9.60572 19.5304 9.75661 19.6695 9.93436 19.7659C10.1121 19.8622 10.3111 19.9127 10.5133 19.9127C10.7154 19.9127 10.9144 19.8622 11.0922 19.7659C11.2699 19.6695 11.4208 19.5304 11.5312 19.3609L16.4904 11.7479C17.3834 10.3771 17.7781 8.74089 17.6082 7.11366C17.4384 5.48643 16.7143 3.96704 15.5574 2.81016ZM15.3907 11.0315L10.5133 18.5189L5.63583 11.0315C4.14286 8.73959 4.46307 5.67244 6.39721 3.73822C6.93773 3.19768 7.57943 2.7689 8.28567 2.47636C8.99191 2.18382 9.74886 2.03325 10.5133 2.03325C11.2777 2.03325 12.0347 2.18382 12.7409 2.47636C13.4471 2.7689 14.0888 3.19768 14.6294 3.73822C16.5635 5.67244 16.8837 8.73959 15.3907 11.0315Z" fill="white"/>
</svg>
