<svg width="18" height="18" viewBox="0 0 18 18" fill="none" xmlns="http://www.w3.org/2000/svg">
<path d="M7.91543 4.68002L5.37818 1.75127C5.08568 1.41377 4.54943 1.41527 4.20968 1.75577L2.12318 3.84602C1.50218 4.46777 1.32443 5.39102 1.68368 6.13127C3.82989 10.575 7.41371 14.1638 11.8544 16.3163C12.5939 16.6755 13.5164 16.4978 14.1374 15.876L16.2434 13.7663C16.5847 13.425 16.5854 12.8858 16.2449 12.5933L13.3049 10.0695C12.9974 9.80552 12.5197 9.84002 12.2114 10.149L11.1884 11.1735C11.1361 11.2284 11.0671 11.2646 10.9922 11.2765C10.9173 11.2884 10.8405 11.2754 10.7737 11.2395C9.10151 10.2766 7.71442 8.88769 6.75368 7.21427C6.7177 7.14734 6.70467 7.07044 6.71659 6.99539C6.72852 6.92034 6.76473 6.85127 6.81968 6.79877L7.83968 5.77802C8.14868 5.46752 8.18243 4.98752 7.91543 4.67927V4.68002Z" stroke="#333333" stroke-width="2" stroke-linecap="round" stroke-linejoin="round"/>
</svg>
