<svg width="18" height="19" viewBox="0 0 18 19" fill="none" xmlns="http://www.w3.org/2000/svg">
<path d="M15.1609 18.0312H15.0494C2.15404 17.2897 0.323101 6.40906 0.0671638 3.08844C0.0465413 2.83026 0.0770657 2.57054 0.156988 2.32418C0.23691 2.07781 0.364659 1.84964 0.532916 1.65273C0.701173 1.45582 0.906629 1.29405 1.13751 1.17668C1.3684 1.05931 1.62017 0.988649 1.87841 0.968751H5.49435C5.75722 0.968496 6.0141 1.04718 6.23174 1.19461C6.44937 1.34203 6.61772 1.55141 6.71498 1.79563L7.71248 4.25C7.80852 4.48858 7.83235 4.75011 7.78102 5.00212C7.72968 5.25413 7.60544 5.4855 7.42373 5.6675L6.02591 7.07844C6.24426 8.31924 6.83847 9.46303 7.72816 10.3551C8.61785 11.2471 9.76007 11.8443 11.0003 12.0659L12.4244 10.655C12.6091 10.4753 12.8426 10.3539 13.0959 10.3061C13.3491 10.2583 13.6108 10.286 13.8484 10.3859L16.3225 11.3769C16.563 11.4772 16.7682 11.6469 16.912 11.8643C17.0557 12.0816 17.1315 12.3369 17.1297 12.5975V16.0625C17.1297 16.5846 16.9222 17.0854 16.553 17.4546C16.1838 17.8238 15.6831 18.0312 15.1609 18.0312ZM2.03591 2.28125C1.86187 2.28125 1.69495 2.35039 1.57188 2.47346C1.4488 2.59653 1.37966 2.76345 1.37966 2.9375V2.99C1.68154 6.875 3.61748 16.0625 15.1215 16.7188C15.2078 16.7241 15.2942 16.7123 15.3758 16.6842C15.4575 16.656 15.5328 16.6121 15.5974 16.5547C15.6621 16.4974 15.7147 16.4279 15.7524 16.3502C15.7902 16.2725 15.8121 16.1881 15.8172 16.1019V12.5975L13.3431 11.6066L11.4597 13.4769L11.1447 13.4375C5.43529 12.7222 4.66091 7.01281 4.66091 6.95375L4.62154 6.63875L6.48529 4.75531L5.50091 2.28125H2.03591Z" fill="white"/>
</svg>
