<svg width="18" height="18" viewBox="0 0 18 18" fill="none" xmlns="http://www.w3.org/2000/svg">
<g clip-path="url(#clip0)">
<path d="M8.96085 0C6.87225 0 5.17139 1.69465 5.17139 3.78512V5.68862C5.17139 7.78001 6.86799 9.47373 8.96085 9.47373C11.0494 9.47373 12.7503 7.77908 12.7503 5.68862V3.78512C12.7504 1.69372 11.0537 0 8.96085 0ZM10.8556 5.68862C10.8556 6.73034 10.0053 7.57898 8.96085 7.57898C7.91353 7.57898 7.0661 6.7327 7.0661 5.68862V3.78512C7.0661 2.74339 7.91637 1.89476 8.96085 1.89476C10.0082 1.89476 10.8556 2.74104 10.8556 3.78512V5.68862Z" fill="#333333"/>
<path d="M14.1627 11.7355C14.1564 11.7327 14.1042 11.7131 14.031 11.686C13.9107 11.6415 13.7744 11.592 13.6245 11.5389C13.1969 11.3872 12.7446 11.2355 12.2867 11.0937C11.9406 10.9864 11.6043 10.8888 11.2817 10.8032C10.362 10.5589 9.60013 10.4211 9.00897 10.4211C8.41701 10.4211 7.66705 10.5526 6.77218 10.7861C6.43109 10.8751 6.07516 10.9776 5.70893 11.0909C5.25201 11.2324 4.80207 11.3836 4.37749 11.5348C4.22868 11.5879 4.09341 11.6372 3.97413 11.6816C3.90152 11.7086 3.8497 11.7282 3.82097 11.7393C2.48389 12.2043 1.42676 13.7023 1.42676 15.1525V18.0001H3.32151V15.1525C3.32151 14.5061 3.87079 13.7278 4.47305 13.518C4.52421 13.4988 4.56937 13.4817 4.63505 13.4573C4.74621 13.4159 4.87312 13.3696 5.01328 13.3197C5.41437 13.1768 5.83971 13.0339 6.26935 12.9009C6.60974 12.7955 6.93871 12.7008 7.2505 12.6194C8.00175 12.4235 8.61542 12.3159 9.00897 12.3159C9.39603 12.3159 10.0224 12.4292 10.7954 12.6344C11.0915 12.7131 11.4033 12.8035 11.7259 12.9035C12.1575 13.0372 12.5861 13.1809 12.9911 13.3246C13.1327 13.3748 13.261 13.4213 13.3735 13.463C13.44 13.4876 13.4859 13.5048 13.5085 13.5135C14.1346 13.7352 14.6783 14.5066 14.6783 15.1525V18.0001H16.5731V15.1525C16.5731 13.7048 15.5243 12.217 14.1627 11.7355Z" fill="#333333"/>
</g>
<defs>
<clipPath id="clip0">
<rect width="18" height="18" fill="white"/>
</clipPath>
</defs>
</svg>
