<svg id="Line" height="512" viewBox="0 0 512 512" width="512" xmlns="http://www.w3.org/2000/svg"><g><path d="m488 16h-376v16h368v48h-448v-48h64v-16h-72a8 8 0 0 0 -8 8v392h16v-320h448v256h16v-328a8 8 0 0 0 -8-8z"/><path d="m48 48h16v16h-16z"/><path d="m80 48h16v16h-16z"/><path d="m112 48h16v16h-16z"/><path d="m448 48h16v16h-16z"/><path d="m458 360h-50v-13.321a76.017 76.017 0 1 0 -88.821-25.1 76.766 76.766 0 0 0 32.821 25.089v35.888l-15.4-2.567a28 28 0 0 0 -32.6 27.62v4.031a27.852 27.852 0 0 0 15.479 25.044l32.521 16.26v43.056h116a28.043 28.043 0 0 0 27.715-24h.285v-32h-16v28a12.013 12.013 0 0 1 -12 12h-100v-32a8 8 0 0 0 -4.422-7.155l-36.944-18.472a11.935 11.935 0 0 1 -6.634-10.733v-4.031a12 12 0 0 1 13.973-11.837l24.712 4.12a8 8 0 0 0 9.315-7.892v-108a12 12 0 0 1 24 0v84a8 8 0 0 0 8 8h58a22.025 22.025 0 0 1 22 22v26h16v-26a38.043 38.043 0 0 0 -38-38zm-78-104a28.032 28.032 0 0 0 -28 28v45.112a60 60 0 1 1 56 0v-45.112a28.032 28.032 0 0 0 -28-28z"/><path d="m65.6 323.543a27.868 27.868 0 0 0 -17.6 26v66.457h16v-66.459a11.945 11.945 0 0 1 7.543-11.141l32.457-12.984v31.27l-15.8 15.8a27.819 27.819 0 0 0 -8.2 19.8v15.714a8 8 0 0 0 8 8h16v-16h-8v-7.716a11.915 11.915 0 0 1 3.515-8.484l12.485-12.487 12.485 12.487a11.915 11.915 0 0 1 3.515 8.484v7.716h-8v16h16a8 8 0 0 0 8-8v-15.716a27.819 27.819 0 0 0 -8.2-19.8l-15.8-15.8v-37.67l13.46-5.384 28.293 35.37a8 8 0 0 0 12.494 0l28.293-35.366 13.46 5.382v34a32 32 0 1 0 16 0v-27.6l32.456 12.984a11.944 11.944 0 0 1 7.544 11.141v66.459h16v-66.459a27.867 27.867 0 0 0 -17.6-26l-63.981-25.592-11.019-33.057 7.008-4.2a28.143 28.143 0 0 0 13.592-24.016v-44.676a8 8 0 0 0 8-8v-18a38.043 38.043 0 0 0 -38-38h-17.032a37.981 37.981 0 0 0 -30.968-16h-42a8 8 0 0 0 -8 8v34a38.061 38.061 0 0 0 32 37.526v45.15a28.143 28.143 0 0 0 13.6 24.011l7.009 4.2-11.02 33.059zm174.4 60.457a16 16 0 1 1 -16-16 16.019 16.019 0 0 1 16 16zm-72-52.807-23.034-28.793 9.7-29.1a27.936 27.936 0 0 0 26.666 0l9.7 29.1zm18-187.193a22.025 22.025 0 0 1 22 22v10h-32v-26a38.172 38.172 0 0 0 -.474-6zm-82 10v-26h34a22.025 22.025 0 0 1 22 22v26h-34a22.025 22.025 0 0 1 -22-22zm32 82.676v-44.676h64v44.676a12.058 12.058 0 0 1 -5.826 10.29l-20 12a11.98 11.98 0 0 1 -12.349 0l-20-12a12.059 12.059 0 0 1 -5.825-10.29z"/><path d="m448 128h-152a8 8 0 0 0 -6.656 3.562l-48 72 13.312 8.876 45.625-68.438h147.719z"/><path d="m304 160h40v16h-40z"/><path d="m360 160h88v16h-88z"/><path d="m32 468v-20h140.687l13.656 13.657a8 8 0 0 0 5.657 2.343h128v-16h-124.687l-13.656-13.657a8 8 0 0 0 -5.657-2.343h-152a8 8 0 0 0 -8 8v28a28.032 28.032 0 0 0 28 28h292v-16h-292a12.013 12.013 0 0 1 -12-12z"/></g></svg>