<?xml version="1.0"?>
<svg xmlns="http://www.w3.org/2000/svg" viewBox="0 0 64 64" width="512" height="512"><g id="Outline"><g><path d="M61,23H49c-.017,0-.03.009-.047.009a3.5,3.5,0,0,0-1.662-.911,7.534,7.534,0,0,0-5.514-12.19.981.981,0,0,0-1.053.943,1,1,0,0,0,.942,1.054A5.54,5.54,0,0,1,46,20.479V19a1,1,0,0,0-2,0v9a8,8,0,0,1-16,0V19.94a8.18,8.18,0,0,0,4.828-2.354l.2-.2A11.151,11.151,0,0,0,40.242,20H41a1,1,0,0,0,0-2h-.758a9.18,9.18,0,0,1-6.535-2.707,1,1,0,0,0-1.414,0l-.879.879A6.2,6.2,0,0,1,27,18a1,1,0,0,0-.991.955,7.189,7.189,0,0,1,2.286-9.2L30.22,8.388a8.863,8.863,0,0,0,6.356,3.234l1.187.066a1,1,0,0,0,.111-2l-1.187-.066a6.857,6.857,0,0,1-5.395-3.162.994.994,0,0,0-.651-.444,1,1,0,0,0-.771.166L27.138,8.123a9.285,9.285,0,0,0-3.711,9.529A9.191,9.191,0,0,0,25.722,22H25.5a3.5,3.5,0,0,0,0,7h.551A10.007,10.007,0,0,0,31,36.647V39a1,1,0,0,0,.293.707L35,43.414V49a1,1,0,0,0,2,0V43.414l3.707-3.707A1,1,0,0,0,41,39V38h2a7.008,7.008,0,0,1,7,7v3H45a1,1,0,0,0-1,1v7H41a1,1,0,0,0,0,2H61a1,1,0,0,0,0-2H46V50h4v3a1,1,0,0,0,2,0V45a8.953,8.953,0,0,0-2-5.644V25H60v3a1,1,0,0,0,2,0V24A1,1,0,0,0,61,23ZM24,25.5A1.5,1.5,0,0,1,25.5,24H26v3h-.5A1.5,1.5,0,0,1,24,25.5Zm24,0A1.5,1.5,0,0,1,46.5,27H46V24h.5A1.5,1.5,0,0,1,48,25.5ZM36,41.586l-3-3V37.539a9.992,9.992,0,0,0,6,0v1.047ZM43,36H41.974a9.985,9.985,0,0,0,3.975-7H46.5a3.464,3.464,0,0,0,1.5-.351v8.873A8.947,8.947,0,0,0,43,36Z"/><path d="M61,31a1,1,0,0,0-1,1v7H54.239a1,1,0,0,0,0,2H61a1,1,0,0,0,1-1V32A1,1,0,0,0,61,31Z"/><path d="M34.832,25.555a1,1,0,0,0-.277-1.387,3.694,3.694,0,0,0-4.11,0,1,1,0,0,0,1.11,1.664,1.7,1.7,0,0,1,1.89,0,1,1,0,0,0,1.387-.277Z"/><path d="M40.445,25.832a1,1,0,1,0,1.11-1.664,3.7,3.7,0,0,0-4.11,0,1,1,0,0,0,1.11,1.664A1.7,1.7,0,0,1,40.445,25.832Z"/><path d="M36,34a3.283,3.283,0,0,0,3-3.5C39,28,36.82,28,36,28s-3,0-3,2.5A3.283,3.283,0,0,0,36,34Zm-.939-3.886c.037-.034.2-.114.939-.114s.9.08.938.113A.749.749,0,0,1,37,30.5c0,.8-.468,1.5-1,1.5s-1-.7-1-1.5A.762.762,0,0,1,35.061,30.114Z"/><path d="M61,60H3a1,1,0,0,0,0,2H61a1,1,0,0,0,0-2Z"/><path d="M3,56a1,1,0,0,0,0,2H37a1,1,0,0,0,0-2H23.843L22,53.236V50h4v3a1,1,0,0,0,2,0V49a1,1,0,0,0-1-1H22V45a7.008,7.008,0,0,1,5.171-6.75,1,1,0,1,0-.522-1.93A9.01,9.01,0,0,0,20,45v5.236l-1.709-2.564A5.966,5.966,0,0,0,16.767,44H17a3,3,0,0,0,3-3V35a3,3,0,0,0-3-3,1,1,0,0,1-1-1,3,3,0,0,0-3-3H9a3,3,0,0,0-3,3,1,1,0,0,1-1,1,3,3,0,0,0-3,3v2a1,1,0,0,0,2,0V35a1,1,0,0,1,1-1,3,3,0,0,0,3-3,1,1,0,0,1,1-1h4a1,1,0,0,1,1,1,3,3,0,0,0,3,3,1,1,0,0,1,1,1v6a1,1,0,0,1-1,1H5a1,1,0,0,1-1-1,1,1,0,0,0-2,0,2.984,2.984,0,0,0,1.131,2.328A2.862,2.862,0,0,0,4.205,44.87l4.479,3.2a4.954,4.954,0,0,0,1.983.836L14.608,56ZM6.428,44h5.88a4.007,4.007,0,0,1,3.873,3H11.589a2.979,2.979,0,0,1-1.743-.559Zm6.579,5h3.765l4.667,7H16.9Z"/><path d="M15,37a4,4,0,1,0-4,4A4,4,0,0,0,15,37ZM9,37a2,2,0,1,1,2,2A2,2,0,0,1,9,37Z"/><path d="M57,29a1,1,0,0,0,0-2H55a1,1,0,0,0,0,2Z"/><path d="M52,32a1,1,0,0,0,1,1h4a1,1,0,0,0,0-2H53A1,1,0,0,0,52,32Z"/><path d="M53,37h4a1,1,0,0,0,0-2H53a1,1,0,0,0,0,2Z"/><path d="M3.925,21.205l-.383,2.234a1,1,0,0,0,1.451,1.055L7,23.438l2.007,1.056a1.008,1.008,0,0,0,.465.114,1,1,0,0,0,.986-1.169l-.383-2.234L11.7,19.623a1,1,0,0,0-.554-1.706L8.9,17.59l-1-2.032a1.041,1.041,0,0,0-1.794,0l-1,2.032-2.244.327A1,1,0,0,0,2.3,19.623Zm1.983-1.711a1,1,0,0,0,.753-.547L7,18.26l.339.687a1,1,0,0,0,.753.547l.759.11-.549.535a1,1,0,0,0-.288.885l.13.756-.679-.357a1.005,1.005,0,0,0-.93,0l-.679.357.13-.756a1,1,0,0,0-.288-.885L5.149,19.6Z"/><path d="M13.856,17.917a1,1,0,0,0-.554,1.706l1.623,1.582-.383,2.234a1,1,0,0,0,1.451,1.055L18,23.438l2.007,1.056a1.008,1.008,0,0,0,.465.114,1,1,0,0,0,.986-1.169l-.383-2.234L22.7,19.623a1,1,0,0,0-.554-1.706L19.9,17.59l-1-2.032a1.041,1.041,0,0,0-1.794,0l-1,2.032Zm3.052,1.577a1,1,0,0,0,.753-.547L18,18.26l.339.687a1,1,0,0,0,.753.547l.759.11-.549.535a1,1,0,0,0-.288.885l.13.756-.679-.357a1.005,1.005,0,0,0-.93,0l-.679.357.13-.756a1,1,0,0,0-.288-.885l-.549-.535Z"/><path d="M8.925,10.205l-.383,2.234a1,1,0,0,0,1.451,1.055L12,12.438l2.007,1.056a1.008,1.008,0,0,0,.465.114,1,1,0,0,0,.986-1.169l-.383-2.234L16.7,8.623a1,1,0,0,0-.554-1.706L13.9,6.59l-1-2.032a1.041,1.041,0,0,0-1.794,0l-1,2.032-2.244.327A1,1,0,0,0,7.3,8.623Zm1.983-1.711a1,1,0,0,0,.753-.547L12,7.26l.339.687a1,1,0,0,0,.753.547l.759.11-.549.535a1,1,0,0,0-.288.885l.13.756-.679-.357a1.005,1.005,0,0,0-.93,0l-.679.357.13-.756a1,1,0,0,0-.288-.885L10.149,8.6Z"/></g></g></svg>
