<svg xmlns="http://www.w3.org/2000/svg" viewBox="0 0 166 88" width="166" height="88">
	<style>
		tspan { white-space:pre }
		.shp0 { fill: #ffe500 } 
	</style>
	<path id="Composite Path" class="shp0" d="M136.35 58.54L128.91 57.55L125.95 49.32L121.84 48.82L109.97 30.9L88.26 53.11L79.07 33.2L73.94 34.82L53.39 2.77L42.99 31.87L25.77 50.64L4.61 84.38L162.17 84.38L136.35 58.54ZM58.93 59.58L58.93 46.19L43.37 64.85L40.27 56.3L29.97 80.2L13.06 80.27L30.85 52.79L47.06 36.32L54.54 14.59L54.54 40.5L64.43 35.01L58.93 59.58ZM107.71 62.65L105.21 59.35L88.26 82.4L95.7 63.81L76.44 79.95L90.89 55.42L110.48 36.81L105.03 49.65L111.5 47.52L107.71 62.65Z" />
</svg>