<svg width="1123" height="440" viewBox="0 0 1123 440" fill="none" xmlns="http://www.w3.org/2000/svg">
<path d="M239.863 185.044V3.11871H370.587V39.5028H279.887V185.044H239.863Z" fill="white" fill-opacity="0.1"/>
<path d="M400.735 185.044V3.11871H475.063C496.547 3.11871 513.527 8.87925 526.003 20.4003C532.219 26.2099 537.108 33.292 540.338 41.1635C543.567 49.0349 545.061 57.5104 544.716 66.0117V66.5321C544.716 86.9774 537.786 102.744 523.925 113.832C510.059 124.923 492.473 130.468 471.166 130.466H440.759V185.043L400.735 185.044ZM440.759 94.8598H472.462C480.884 95.3049 489.159 92.5166 495.595 87.0647C498.377 84.5958 500.586 81.5487 502.067 78.1368C503.548 74.7248 504.266 71.0304 504.17 67.312V66.7916C504.398 62.9616 503.743 59.1304 502.256 55.5934C500.77 52.0563 498.491 48.908 495.595 46.391C488.72 41.2584 480.249 38.7263 471.684 39.2438H440.759L440.759 94.8598Z" fill="white" fill-opacity="0.1"/>
<path d="M731.968 160.744C713.251 178.314 688.557 188.114 662.886 188.162C637.215 188.211 612.484 178.502 593.701 161.004C584.811 152.416 577.788 142.086 573.07 130.661C568.353 119.235 566.043 106.959 566.286 94.6006V94.0802C566.068 81.6631 568.414 69.3346 573.175 57.8648C577.937 46.395 585.013 36.0303 593.961 27.4182C612.678 9.84903 637.371 0.0482901 663.043 0.000177976C688.714 -0.0479342 713.444 9.6602 732.227 27.1591C741.116 35.7481 748.139 46.0778 752.856 57.503C757.573 68.9282 759.883 81.2034 759.643 93.5618V94.0801C759.861 106.498 757.516 118.827 752.754 130.297C747.993 141.767 740.916 152.132 731.968 160.744V160.744ZM623.723 134.624C628.845 139.868 634.959 144.039 641.71 146.895C648.46 149.75 655.712 151.234 663.042 151.258C670.372 151.282 677.633 149.846 684.402 147.035C691.172 144.224 697.313 140.093 702.47 134.883C712.682 123.996 718.19 109.522 717.801 94.6006V94.0802C718.148 79.0401 712.545 64.4708 702.211 53.5383C697.088 48.295 690.973 44.1239 684.222 41.2682C677.472 38.4124 670.22 36.9292 662.89 36.9048C655.56 36.8805 648.298 38.3156 641.528 41.1264C634.758 43.9373 628.616 48.0677 623.459 53.2768C613.246 64.1642 607.737 78.6392 608.128 93.5619V94.0802C607.779 109.122 613.384 123.693 623.723 134.624V134.624Z" fill="white" fill-opacity="0.1"/>
<path d="M0.0010376 435.916V253.988H43.1437L90.9645 330.917L138.786 253.988H181.924V435.916H142.159V317.145L90.9647 394.851H89.9235L39.2426 317.923V435.916H0.0010376Z" fill="white" fill-opacity="0.1"/>
<path d="M209.995 435.916L287.964 252.688H324.869L402.834 435.916H360.991L344.36 395.11H267.432L250.796 435.916H209.995ZM281.726 359.765H330.065L305.896 300.773L281.726 359.765Z" fill="white" fill-opacity="0.1"/>
<path d="M430.904 435.916V253.988H561.627V290.375H470.928V435.916L430.904 435.916Z" fill="white" fill-opacity="0.1"/>
<path d="M591.776 435.916V253.988H631.8V325.979H705.609V253.988H745.633V435.916H705.609V362.884H631.8V435.916H591.776Z" fill="white" fill-opacity="0.1"/>
<path d="M851.668 435.916H807.225L842.829 373.541L772.917 253.988H818.142L865.181 337.155L908.323 253.988H952.766L851.668 435.916Z" fill="white" fill-opacity="0.1"/>
<path d="M1048.41 439.035C1036.03 439.371 1023.72 437.143 1012.25 432.491C1000.78 427.84 990.393 420.865 981.747 412.005C973.038 403.293 966.187 392.904 961.609 381.468C957.03 370.032 954.819 357.786 955.108 345.47V344.952C954.839 332.59 957.071 320.3 961.67 308.822C966.27 297.344 973.142 286.914 981.874 278.158C999.721 259.967 1022.42 250.871 1049.97 250.869C1079.08 250.869 1102.99 260.226 1121.7 278.94L1096.23 308.307C1080.8 294.625 1065.3 287.78 1049.71 287.774C1042.61 287.623 1035.55 289.022 1029.05 291.872C1022.54 294.722 1016.73 298.956 1012.02 304.278C1002 315.213 996.597 329.604 996.95 344.434V344.952C996.571 359.879 1001.92 374.385 1011.89 385.494C1016.59 390.873 1022.41 395.153 1028.95 398.028C1035.48 400.903 1042.57 402.304 1049.71 402.13C1058.44 402.336 1067.1 400.559 1075.05 396.933C1083.3 392.712 1090.88 387.281 1097.53 380.82L1123 406.549C1113.92 416.734 1102.92 425.034 1090.64 430.978C1077.32 436.706 1062.9 439.455 1048.41 439.035V439.035Z" fill="white" fill-opacity="0.1"/>
<path d="M148.51 151.065H82.4489L62.3289 184.661H211.331L105.663 1.64395L0 184.661H43.4152L105.663 76.8429L148.51 151.065Z" fill="white" fill-opacity="0.1"/>
</svg>
